# xmcd CD database file
#
# Track frame offsets:
#	150
#	10493
#	21856
#	34623
#	47693
#	68576
#	81964
#	100277
#	110033
#	126647
#
# Disc length: 1821 seconds
#
# Revision: 0
# Processed by: cddbd v1.5.2PL0 Copyright (c) Steve Scherf et al.
# Submitted via: CDex 1.70beta2
#
DISCID=85071b0a
DTITLE=Lorraine Heartsook - Be Real
DYEAR=2002
DGENRE=Country
TTITLE0=Be Real (master)
TTITLE1=Toe Tappin (master)
TTITLE2=You Promised (master)
TTITLE3=Talk To Me (master)
TTITLE4=Just For Today (master)
TTITLE5=Help Love Stand (master)
TTITLE6=Angel Of Mercy (master)
TTITLE7=Heavenly Hoe Down (master)
TTITLE8=Good Days (master)
TTITLE9=Hold On (master)
EXTD=YEAR: 2002
EXTT0=
EXTT1=
EXTT2=
EXTT3=
EXTT4=
EXTT5=
EXTT6=
EXTT7=
EXTT8=
EXTT9=
PLAYORDER=
